<svg xmlns="http://www.w3.org/2000/svg" xmlns:xlink="http://www.w3.org/1999/xlink" width="500" zoomAndPan="magnify" viewBox="0 0 375 374.999991" height="500" preserveAspectRatio="xMidYMid meet" version="1.0"><defs><clipPath id="b280dbd567"><path d="M 39 0 L 318.75 0 L 318.75 372 L 39 372 Z M 39 0 " clip-rule="nonzero"/></clipPath></defs><g clip-path="url(#b280dbd567)"><path fill="#322964" d="M 70.046875 0.273438 C 73.527344 0.152344 76.933594 0.605469 80.257812 1.636719 C 83.585938 2.667969 86.652344 4.214844 89.457031 6.28125 L 305.800781 160.8125 C 306.300781 161.167969 306.785156 161.539062 307.261719 161.925781 C 307.738281 162.308594 308.203125 162.707031 308.652344 163.121094 C 309.105469 163.53125 309.546875 163.957031 309.972656 164.394531 C 310.398438 164.835938 310.8125 165.285156 311.210938 165.75 C 311.613281 166.210938 311.996094 166.6875 312.371094 167.171875 C 312.742188 167.660156 313.097656 168.15625 313.441406 168.660156 C 313.785156 169.167969 314.109375 169.6875 314.421875 170.210938 C 314.734375 170.738281 315.03125 171.273438 315.308594 171.820312 C 315.589844 172.363281 315.851562 172.914062 316.101562 173.476562 C 316.347656 174.035156 316.578125 174.601562 316.789062 175.175781 C 317.003906 175.75 317.199219 176.328125 317.378906 176.914062 C 317.558594 177.496094 317.71875 178.089844 317.863281 178.683594 C 318.007812 179.277344 318.132812 179.875 318.242188 180.476562 C 318.351562 181.082031 318.441406 181.683594 318.511719 182.292969 C 318.585938 182.902344 318.640625 183.507812 318.675781 184.121094 C 318.710938 184.730469 318.730469 185.34375 318.730469 185.953125 C 318.730469 186.566406 318.710938 187.179688 318.675781 187.789062 C 318.640625 188.398438 318.585938 189.007812 318.511719 189.617188 C 318.441406 190.222656 318.351562 190.828125 318.242188 191.429688 C 318.132812 192.035156 318.007812 192.632812 317.863281 193.226562 C 317.71875 193.820312 317.558594 194.410156 317.378906 194.996094 C 317.199219 195.582031 317.003906 196.160156 316.789062 196.734375 C 316.578125 197.308594 316.347656 197.875 316.101562 198.433594 C 315.851562 198.996094 315.589844 199.546875 315.308594 200.089844 C 315.03125 200.632812 314.734375 201.167969 314.421875 201.695312 C 314.109375 202.222656 313.785156 202.738281 313.441406 203.246094 C 313.097656 203.753906 312.742188 204.25 312.371094 204.738281 C 311.996094 205.222656 311.613281 205.699219 311.210938 206.160156 C 310.8125 206.625 310.398438 207.074219 309.972656 207.511719 C 309.546875 207.953125 309.105469 208.375 308.652344 208.789062 C 308.203125 209.203125 307.738281 209.601562 307.261719 209.984375 C 306.785156 210.371094 306.300781 210.742188 305.800781 211.097656 L 89.457031 365.628906 C 88.632812 366.253906 87.785156 366.832031 86.90625 367.371094 C 86.023438 367.910156 85.121094 368.402344 84.191406 368.851562 C 83.265625 369.296875 82.316406 369.699219 81.347656 370.050781 C 80.378906 370.402344 79.394531 370.707031 78.394531 370.960938 C 77.394531 371.214844 76.386719 371.417969 75.367188 371.570312 C 74.347656 371.726562 73.324219 371.828125 72.292969 371.878906 C 71.261719 371.929688 70.234375 371.925781 69.203125 371.875 C 68.175781 371.824219 67.148438 371.71875 66.128906 371.566406 C 65.113281 371.410156 64.101562 371.203125 63.105469 370.949219 C 62.105469 370.691406 61.121094 370.386719 60.152344 370.035156 C 59.183594 369.679688 58.238281 369.277344 57.308594 368.828125 C 56.382812 368.378906 55.476562 367.886719 54.597656 367.347656 C 53.722656 366.808594 52.871094 366.226562 52.050781 365.601562 C 51.230469 364.976562 50.445312 364.3125 49.691406 363.609375 C 48.9375 362.90625 48.21875 362.167969 47.539062 361.390625 C 46.859375 360.617188 46.21875 359.808594 45.621094 358.972656 C 45.019531 358.132812 44.464844 357.265625 43.953125 356.371094 C 43.441406 355.476562 42.972656 354.558594 42.550781 353.617188 C 42.132812 352.675781 41.757812 351.714844 41.433594 350.738281 C 41.109375 349.757812 40.835938 348.765625 40.609375 347.761719 C 40.382812 346.753906 40.210938 345.742188 40.085938 344.71875 C 39.960938 343.695312 39.890625 342.667969 39.867188 341.636719 C 39.847656 340.605469 39.878906 339.574219 39.960938 338.546875 C 40.042969 337.519531 40.175781 336.5 40.359375 335.484375 C 40.542969 334.46875 40.777344 333.46875 41.0625 332.476562 C 41.347656 331.484375 41.679688 330.511719 42.0625 329.554688 C 42.445312 328.597656 42.871094 327.660156 43.347656 326.746094 C 43.824219 325.832031 44.34375 324.941406 44.910156 324.078125 C 45.472656 323.21875 46.078125 322.386719 46.726562 321.582031 C 47.375 320.78125 48.0625 320.011719 48.785156 319.28125 C 49.511719 318.546875 50.269531 317.851562 51.0625 317.195312 C 51.859375 316.535156 52.683594 315.921875 53.539062 315.347656 L 234.691406 185.953125 L 53.539062 56.5625 C 52.214844 55.644531 50.96875 54.628906 49.800781 53.515625 C 48.636719 52.398438 47.5625 51.203125 46.585938 49.917969 C 45.605469 48.636719 44.734375 47.289062 43.964844 45.867188 C 43.199219 44.449219 42.546875 42.980469 42.007812 41.460938 C 41.472656 39.9375 41.054688 38.386719 40.761719 36.800781 C 40.46875 35.214844 40.296875 33.613281 40.253906 32.003906 C 40.210938 30.390625 40.292969 28.785156 40.5 27.183594 C 40.707031 25.585938 41.039062 24.011719 41.492188 22.464844 C 41.945312 20.917969 42.519531 19.414062 43.207031 17.957031 C 43.894531 16.496094 44.695312 15.101562 45.601562 13.769531 C 46.511719 12.433594 47.515625 11.179688 48.621094 10.003906 C 49.722656 8.828125 50.914062 7.746094 52.1875 6.757812 C 53.460938 5.765625 54.804688 4.882812 56.214844 4.101562 C 57.625 3.324219 59.089844 2.660156 60.605469 2.109375 C 62.121094 1.558594 63.671875 1.128906 65.257812 0.820312 C 66.839844 0.515625 68.4375 0.332031 70.046875 0.273438 Z M 70.046875 0.273438 " fill-opacity="1" fill-rule="nonzero"/></g></svg>